<svg viewBox="0 0 16 16" xmlns="http://www.w3.org/2000/svg">
 <g stroke="#555"><path d="m2.6671667 2.6661667c2.6671666-2.6661667 8.0005003-2.6661667 10.6666673-.0004999 2.666166 2.6656668 2.666166 8.0000002-.0005 10.6671672-2.666667 2.667166-7.9990007 2.667166-10.6661673-.0005-2.6671667-2.667667-2.6671667-8.0000007 0-10.6661673z" fill="#fff"/><g fill="none"><path d="m9 8h6"/><path d="m4.6671666 4.6661666c1.6671666-1.6661666 5.0017229-1.6661666 6.6672784-.0006113 1.665555 1.6655552 1.665555 5.0356341.01715 6.6850397-1.6484056 1.649405-5.0160257 1.649405-6.6838104-.01838-1.6677846-1.6677843-1.6677846-4.9998818-.000618-6.6660484z"/><path d="m6.0005 5.9995c1.0005-.9995 3.0015209-.9995 4.00051-.0005105.99899.9989896.99899 2.9989986-.0010159 4.0000046-1.000006 1.0010059-2.9979497 1.0010059-3.9989719-.0000163s-1.0010222-2.9999778-.0005222-3.9994778z"/><path d="m7.3338333 7.3328333c.3338333-.3328333 1.0010519-.3328333 1.3336093-.0002759s.3325574.9991005-.0006137 1.3332716c-.333171.334171-.9986698.334171-1.3327494.0000915-.3340795-.3340796-.3340795-1.0002539-.0002462-1.3330872z"/><path d="m8 7.25c0-1.251 0-2.501 0-3.75"/><path d="m7.5 7.5c-.9999016-.8332514-1.9999017-1.6665847-3-2.5"/><path d="m8 9v3.5"/><path d="m8.5 8.5c1.0000983.8334153 2.000099 1.666749 3 2.5"/><path d="m8.5 7.5c1.0010821-.834235 2.001082-1.6675684 3-2.5"/><path d="m7.5 8.5c-.998918.8324316-1.9989175 1.665765-3 2.5"/><path d="m3.5 8h3.5"/></g></g></svg>
