<svg viewBox="0 0 16 16" xmlns="http://www.w3.org/2000/svg">
  <path d="m4 0c-.4748572 0-1 .446-1 1v12c0 .554.5251428 1 1 1h10c.474857 0 1-.446 1-1 0-4 0-8 0-12 0-.554-.525143-1-1-1z" fill="#eac282" stroke-width=".92582"/>
  <path d="m3 0v13c0 .554.7878441.990933 1.5 1h1.5v-14z" fill="#808080" stroke-width="1.133893"/>
  <path d="m2 1v13c0 .554.5251428 1 1 1h10c.474857 0 1-.446 1-1v-12.0000005c0-.554-.525143-.99999997-1-.99999997z" fill="#fff" stroke-width=".92582"/>
  <path d="m2 2c-.4748572 0-1 .446-1 1v12c0 .554.5251428 1 1 1h10c.474857 0 1-.446 1-1 0-4 0-8 0-12 0-.554-.525143-1-1-1z" fill="#eac282" stroke-width=".92582"/>
  <g fill="#808080">
    <path d="m1 2v14h3v-14z" stroke-width="1.133893"/>
    <path d="m1 2 .7.7 2-2-.7-.7z" stroke-width=".92582"/>
  </g>
</svg>
