<svg viewBox="0 0 16 16" xmlns="http://www.w3.org/2000/svg"><path d="m13.396484.97851562c-.127521-.0046362-.259313.00150408-.396484.02148438h-.691406-.308594-8v.017578c-.533997.12702-.8266138.4947913-1 .982422v10.263672c-1.125-.227372-2.15095782.495072-2.13937986 1.320493.009005.641994.52559856 1.651988 2.04350096 1.535684 5.8099305.129492 6.7624063.485645 9.8902439-.227082.470216.0021.05135-8.6126162.505698-8.4914926-.06659-.9159288-.2179-1.9344002-.0364-2.6072412 3.050204-.034085 2.045638-2.7459744.132817-2.81551758z" fill="#fff"/><g fill="#808080"><path d="m4.25 0c-1.3070984 0-2.25 1.1080036-2.25 2.375v1.875 7.197266c-1.07146171.240703-2 1.02521-2 2.177734 0 1.227471.99494775 2.181562 2.1601562 2.341797.0115882.020787.1035101.033203.3398438.033203h5.84375 3.40625c1.307099 0 2.25-1.108004 2.25-2.375v-1.875-5.1425781-2.0546875c1.071462-.2407031 2-1.0252107 2-2.1777344 0-1.3460015-1.194234-2.375-2.5-2.375zm0 1h9.25c.76536 0 1.5.6498765 1.5 1.375 0 .6934766-.67228 1.3120311-1.400391 1.3652344-.029708-.0075692-.062344-.0062569-.099609.0097656h-.5v2.4648438 5.5351562 1.875c0 .810522-.479598 1.375-1.25 1.375h-4.4863281-4.7636719c-.7653589 0-1.5-.649877-1.5-1.375 0-.725124.7346407-1.375 1.5-1.375h.5v-8-1.875c0-.8105224.4795984-1.375 1.25-1.375z"/><text style="font-family:'Segoe UI';font-weight:bold;letter-spacing:0;word-spacing:0;font-size:11.0194;stroke-width:1.03307" transform="scale(.99742459 1.0025821)" x="4.614747" y="11.834589"><tspan font-size="11.0194" stroke-width="1.03307" x="4.614747" y="11.834589">C</tspan></text></g></svg>