<?xml version="1.0" encoding="UTF-8" standalone="no"?>
<svg
   xmlns:dc="http://purl.org/dc/elements/1.1/"
   xmlns:cc="http://creativecommons.org/ns#"
   xmlns:rdf="http://www.w3.org/1999/02/22-rdf-syntax-ns#"
   xmlns:svg="http://www.w3.org/2000/svg"
   xmlns="http://www.w3.org/2000/svg"
   xmlns:sodipodi="http://sodipodi.sourceforge.net/DTD/sodipodi-0.dtd"
   xmlns:inkscape="http://www.inkscape.org/namespaces/inkscape"
   viewBox="0 0 16 16"
   version="1.1"
   id="svg10"
   sodipodi:docname="Enum.svg"
   inkscape:version="0.92.4 (5da689c313, 2019-01-14)"
   inkscape:export-filename="C:\Users\Kalama\Documents\GitHub\CodeLab-bb\Icons\Enum.32.png"
   inkscape:export-xdpi="192"
   inkscape:export-ydpi="192"><metadata
   id="metadata16">
  <rdf:RDF>
    <cc:Work
       rdf:about="">
      <dc:format>image/svg+xml</dc:format>
      <dc:type
         rdf:resource="http://purl.org/dc/dcmitype/StillImage" />
    </cc:Work>
  </rdf:RDF>
</metadata>
<defs
   id="defs14" />
<sodipodi:namedview
   pagecolor="#ffffff"
   bordercolor="#666666"
   borderopacity="1"
   objecttolerance="10"
   gridtolerance="10"
   guidetolerance="10"
   inkscape:pageopacity="0"
   inkscape:pageshadow="2"
   inkscape:window-width="1920"
   inkscape:window-height="1018"
   id="namedview12"
   showgrid="false"
   showguides="false"
   inkscape:zoom="29.5"
   inkscape:cx="11.257284"
   inkscape:cy="9.7383852"
   inkscape:window-x="-8"
   inkscape:window-y="-8"
   inkscape:window-maximized="1"
   inkscape:current-layer="g4655" />



     /&amp;gt;
 <g
   id="g4655"
   inkscape:export-xdpi="96"
   inkscape:export-ydpi="96">
  <path
     style="fill:#000000;fill-opacity:0"
     d="M 0,0.5 V 0 H 0.5 1 1.5 2 2.5 3 3.5 4 4.5 5 5.5 6 6.5 7 7.5 8 8.5 9 9.5 10 10.5 11 11.5 12 12.5 13 13.5 14 14.5 15 15.5 16 V 0.5 1 1.5 2 2.5 3 3.5 4 4.5 5 5.5 6 6.5 7 7.5 8 8.5 9 9.5 10 10.5 11 11.5 12 12.5 13 13.5 14 14.5 15 15.5 16 H 15.5 15 14.5 14 13.5 13 12.5 12 11.5 11 10.5 10 9.5 9 8.5 8 7.5 7 6.5 6 5.5 5 4.5 4 3.5 3 2.5 2 1.5 1 0.5 0 V 15.5 15 14.5 14 13.5 13 12.5 12 11.5 11 10.5 10 9.5 9 8.5 8 7.5 7 6.5 6 5.5 5 4.5 4 3.5 3 2.5 2 1.5 1 0.5 M 8.5,14 Q 9,14 9.375,13.875 9.75,13.75 9.875,13.375 10,13 10,12.5 q 0,-0.5 0,-1 0,-0.5 0,-1 0,-0.5 0,-1 Q 10,9 10,8.5 10,8 9.875,7.625 9.75,7.25 9.375,7.125 9,7 8.5,7 8,7 7.5,7 7,7 6.5,7 6,7 5.5,7 5,7 4.5,7 4,7 3.5,7 3,7 2.5,7 2,7 1.625,7.125 1.25,7.25 1.125,7.625 1,8 1,8.5 q 0,0.5 0,1 0,0.5 0,1 0,0.5 0,1 0,0.5 0,1 0,0.5 0.125,0.875 0.125,0.375 0.5,0.5 Q 2,14 2.5,14 q 0.5,0 1,0 0.5,0 1,0 0.5,0 1,0 0.5,0 1,0 0.5,0 1,0 0.5,0 1,0 m 5,-5 Q 14,9 14.375,8.875 14.75,8.75 14.875,8.375 15,8 15,7.5 15,7 15,6.5 15,6 15,5.5 15,5 15,4.5 15,4 15,3.5 15,3 14.875,2.625 14.75,2.25 14.375,2.125 14,2 13.5,2 13,2 12.5,2 12,2 11.5,2 11,2 10.5,2 10,2 9.5,2 9,2 8.5,2 8,2 7.5,2 7,2 6.625,2.125 6.25,2.25 6.125,2.625 6,3 6,3.5 6,4 6,4.5 6,5 6.125,5.375 6.25,5.75 6.625,5.875 7,6 7.5,6 q 0.5,0 1,0 0.5,0 1,0 0.5,0 1,0 0.5,0 1,0 0.5,0 0.875,0.125 0.375,0.125 0.375,0.375 0,0.25 -0.375,0.375 Q 12,7 11.625,7.125 11.25,7.25 11.125,7.625 11,8 11.125,8.375 11.25,8.75 11.625,8.875 12,9 12.5,9 q 0.5,0 1,0"
     id="path4643"
     inkscape:connector-curvature="0" />
  <path
     style="fill:#e78e46;fill-opacity:1"
     d="m 6,2 h 9 V 9 H 11 V 7 h 2 V 6 H 6 M 13,5 V 4 H 8 v 1"
     id="path4645"
     inkscape:connector-curvature="0"
     sodipodi:nodetypes="cccccccccccc" />
  <path
     style="fill:#000000;fill-opacity:0"
     d="M 8.25,4.5 Q 8.25,4.25 8.625,4.125 9,4 9.5,4 q 0.5,0 1,0 0.5,0 1,0 0.5,0 0.875,0.125 0.375,0.125 0.375,0.375 0,0.25 -0.375,0.375 Q 12,5 11.5,5 11,5 10.5,5 10,5 9.5,5 9,5 8.625,4.875 8.25,4.75 8.25,4.5"
     id="path4647"
     inkscape:connector-curvature="0" />
  <path
     style="fill:#e78e46;fill-opacity:1"
     d="m 10,7 v 7 H 1 V 7 m 7,5 V 11 H 3 v 1 M 8,10 V 9 H 3 v 1"
     id="path4649"
     inkscape:connector-curvature="0"
     sodipodi:nodetypes="cccccccccccc" />
  <path
     style="fill:#000000;fill-opacity:0"
     d="M 3.25,9.5 Q 3.25,9.25 3.625,9.125 4,9 4.5,9 5,9 5.5,9 6,9 6.5,9 7,9 7.375,9.125 7.75,9.25 7.75,9.5 7.75,9.75 7.375,9.875 7,10 6.5,10 6,10 5.5,10 5,10 4.5,10 4,10 3.625,9.875 3.25,9.75 3.25,9.5"
     id="path4651"
     inkscape:connector-curvature="0" />
  <path
     style="fill:#000000;fill-opacity:0"
     d="m 3.25,11.5 q 0,-0.25 0.375,-0.375 Q 4,11 4.5,11 q 0.5,0 1,0 0.5,0 1,0 0.5,0 0.875,0.125 0.375,0.125 0.375,0.375 0,0.25 -0.375,0.375 Q 7,12 6.5,12 6,12 5.5,12 5,12 4.5,12 4,12 3.625,11.875 3.25,11.75 3.25,11.5"
     id="path4653"
     inkscape:connector-curvature="0" />
</g>
</svg>
