<svg viewBox="0 0 16 16" xmlns="http://www.w3.org/2000/svg">
  <path d="m0 0v16h16v-16zm1 4h14v10h-14z" fill="#4d82b8"/>
  <path d="m1 3h14v12h-14z" fill="#fff"/>
  <path d="m11 5v3h3v-3zm1 1h1v1h-1zm-9.5 0c-.277 0-.5.223-.5.5s.223.5.5.5h7c.277 0 .5-.223.5-.5s-.223-.5-.5-.5z" fill="#808080"/>
  <path d="m7 5v.980469h-.5c-.277 0-.5.222999-.5.5 0 .276999.223.5.5.5h.5v.519531c0 .277.2229999.5.5.5.2769997 0 .5-.223.5-.5v-.519531h.5c.277 0 .5-.223.5-.5s-.223-.500001-.5-.5h-.5v-.980469z" fill="#4d82b8"/>
  <path d="m11 9.9999996v3.0000004h3v-3.0000004zm1 1.0000004h1v1h-1zm-9.5 0c-.277 0-.5.223-.5.5s.223.5.5.5h7c.277 0 .5-.223.5-.5s-.223-.5-.5-.5z" fill="#808080"/>
  <path d="m5 9.999999v.980469h-.5c-.277 0-.5.222999-.5.5 0 .276999.223.5.5.5h.5v.519532c0 .277.2229999.5.5.5.2769997 0 .5-.223.5-.5v-.519532h.5c.277 0 .5-.223.5-.5s-.223-.500001-.5-.5h-.5v-.980469z" fill="#4d82b8"/>
</svg>
