<?xml version="1.0" encoding="UTF-8" standalone="no"?>
<svg
   xmlns:dc="http://purl.org/dc/elements/1.1/"
   xmlns:cc="http://creativecommons.org/ns#"
   xmlns:rdf="http://www.w3.org/1999/02/22-rdf-syntax-ns#"
   xmlns:svg="http://www.w3.org/2000/svg"
   xmlns="http://www.w3.org/2000/svg"
   xmlns:sodipodi="http://sodipodi.sourceforge.net/DTD/sodipodi-0.dtd"
   xmlns:inkscape="http://www.inkscape.org/namespaces/inkscape"
   viewBox="0 0 16 16"
   version="1.1"
   id="svg8"
   sodipodi:docname="FormDesigner.svg"
   inkscape:export-filename="C:\Users\Kalama\Documents\GitHub\CodeLab-bb\Icons\FormDesigner.32.png"
   inkscape:export-xdpi="192"
   inkscape:export-ydpi="192"
   inkscape:version="0.92.4 (5da689c313, 2019-01-14)">
  <metadata
     id="metadata14">
    <rdf:RDF>
      <cc:Work
         rdf:about="">
        <dc:format>image/svg+xml</dc:format>
        <dc:type
           rdf:resource="http://purl.org/dc/dcmitype/StillImage" />
      </cc:Work>
    </rdf:RDF>
  </metadata>
  <defs
     id="defs12" />
  <sodipodi:namedview
     pagecolor="#ffffff"
     bordercolor="#666666"
     borderopacity="1"
     objecttolerance="10"
     gridtolerance="10"
     guidetolerance="10"
     inkscape:pageopacity="0"
     inkscape:pageshadow="2"
     inkscape:window-width="944"
     inkscape:window-height="1002"
     id="namedview10"
     showgrid="false"
     inkscape:zoom="59"
     inkscape:cx="6.144718"
     inkscape:cy="7.3660108"
     inkscape:window-x="0"
     inkscape:window-y="0"
     inkscape:window-maximized="0"
     inkscape:current-layer="svg8" />
  <path
     d="M 0,0 V 16 H 16 V 0 Z M 1,4 H 15 V 14 H 1 Z"
     id="path2"
     inkscape:connector-curvature="0"
     style="fill:#4d82b8"
     sodipodi:nodetypes="cccccccccc" />
  <path
     d="M 1,3 H 15 V 15 H 1 Z"
     id="path4"
     inkscape:connector-curvature="0"
     style="fill:#ffffff"
     sodipodi:nodetypes="ccccc" />
  <path
     d="m 11,5 v 3 h 3 V 5 Z m 1,1 h 1 V 7 H 12 Z M 2.5,6 C 2.223,6 2,6.223 2,6.5 2,6.777 2.223,7 2.5,7 h 7 C 9.777,7 10,6.777 10,6.5 10,6.223 9.777,6 9.5,6 Z"
     id="path6"
     inkscape:connector-curvature="0"
     style="fill:#808080"
     sodipodi:nodetypes="ccccccccccsssssss" />
  <path
     style="fill:#4d82b8;fill-opacity:1"
     d="M 7,5 V 5.980469 H 6.5 c -0.277,0 -0.5,0.222999 -0.5,0.5 0,0.276999 0.223,0.5 0.5,0.5 H 7 V 7.5 C 7,7.777 7.2229999,8 7.5,8 7.7769997,8 8,7.777 8,7.5 V 6.980469 h 0.5 c 0.277,0 0.5,-0.223 0.5,-0.5 0,-0.277 -0.223,-0.500001 -0.5,-0.5 H 8 V 5 Z"
     id="path6-3"
     inkscape:connector-curvature="0"
     sodipodi:nodetypes="ccssscssscsscccc" />
  <path
     d="M 11,9.9999996 V 13 h 3 V 9.9999996 Z M 12,11 h 1 v 1 H 12 Z M 2.5,11 C 2.223,11 2,11.223 2,11.5 2,11.777 2.223,12 2.5,12 h 7 C 9.777,12 10,11.777 10,11.5 10,11.223 9.777,11 9.5,11 Z"
     id="path6-7"
     inkscape:connector-curvature="0"
     style="fill:#808080"
     sodipodi:nodetypes="ccccccccccsssssss" />
  <path
     style="fill:#4d82b8;fill-opacity:1"
     d="m 5,9.999999 v 0.980469 H 4.5 c -0.277,0 -0.5,0.222999 -0.5,0.5 0,0.276999 0.223,0.5 0.5,0.5 H 5 V 12.5 C 5,12.777 5.2229999,13 5.5,13 5.7769997,13 6,12.777 6,12.5 v -0.519532 h 0.5 c 0.277,0 0.5,-0.223 0.5,-0.5 0,-0.277 -0.223,-0.500001 -0.5,-0.5 H 6 V 9.999999 Z"
     id="path6-3-8"
     inkscape:connector-curvature="0"
     sodipodi:nodetypes="ccssscssscsscccc"
     inkscape:export-xdpi="192"
     inkscape:export-ydpi="192" />
</svg>
