<svg viewBox="0 0 16 16" xmlns="http://www.w3.org/2000/svg">
  <path d="m1 1v14h9v-14z" fill="#fff" stroke-width=".948683"/>
  <path d="m1 0c-.554 0-1 .446-1 1v14c0 .554.446 1 1 1h8c.4714045 0 1-.528595 1-1v-1h-1v1h-8v-14h8v3h1v-3c0-.47140452-.528595-1-1-1z" fill="#808080"/>
  <path d="m11.994727 8.4988153a.49850708.49844668 0 0 0 -.346841.8572554l2.139502 2.1314493h-8.7645522a.49850708.49844668 0 1 0 0 .995585h8.7684492l-2.143399 2.143139a.49850708.49844668 0 1 0 .705373.70334l2.911124-2.910773a.49850708.49844668 0 0 0 .0039-.865049l-2.915024-2.9049271a.49850708.49844668 0 0 0 -.358532-.1500196z" fill="#8959ab" fill-rule="evenodd" stroke="#8959ab" stroke-width=".997594"/>
  <path d="m6.9914028 2.4992915a.4984884.49950275 0 0 0 -.342931.1522903l-2.9090679 2.9149864a.4984884.49950275 0 0 0 -.00389.8707867l2.9129639 2.9091294a.49875848.49977338 0 0 0 .7034019-.7087339l-2.139421-2.1359653h8.7642243a.4984884.49950275 0 1 0 0-.997695h-8.7681221l2.1433188-2.1476791a.4984884.49950275 0 0 0 -.3604669-.8571195z" fill="#2ec27e" fill-rule="evenodd" stroke="#2ec27e" stroke-width=".998632"/>
  <path d="m9 8v2h1v-2z" fill="#808080" stroke-width=".377964"/>
</svg>
