<svg viewBox="0 0 16 16" xmlns="http://www.w3.org/2000/svg">
 <path d="m.5 2.5h12l3 3v8h-15z" fill="#fff"/><g fill="none" stroke="#808080"><path d="m12.648438 2.3515625 3 3zm-12.148438.1484375v11h15v-8h-3v-3z"/><path d="m2.0047231 4.5095573 1.9905537-.0191186" stroke-width=".980931"/><path d="m5.0047531 4.5064421 2.9904937-.0128881" stroke-width=".987162"/><path d="m9.0047231 4.5095574 1.9905539-.019119" stroke-width=".980931"/><path d="m9.0021272 7.5064127 2.9957458-.0128661" stroke-width=".987184"/><path d="m9.0021198 11.506413 2.9957452-.01287" stroke-width=".987184"/><path d="m9.0047105 9.5095572 1.9905535-.0191186" stroke-width=".980931"/><path d="m12.004711 9.5095572 1.990554-.019119" stroke-width=".980931"/><path d="m13 7.5h1" stroke-width=".963026"/><path d="m13 11.518487h1" stroke-width=".963026"/></g><path d="m5.3338333 7.3328333c.3338334-.3328333 1.0016141-.3328333 1.3338904-.000557s.3322763.9989535-.0011088 1.3333386-.9978368.3343851-1.3322258-.0000039c-.3343891-.3343891-.3343891-.9999443-.0005558-1.3327777z" fill="#808080"/><path d="m2 8v4h6l-2-2h-2l-1-1z" fill="#808080"/></svg>
