<svg viewBox="0 0 16 16" xmlns="http://www.w3.org/2000/svg">
  <path d="m218.53968-45.268345 5.0987-5.048887.98201-.00028c.91297-.000184 1.02704-.02135 1.62239-.300606 1.2897-.604922 2.19535-1.856092 2.28444-3.155983.042-.612666.0261-.697331-.16957-.903778-.11875-.125274-.25633-.22778-.30573-.22778s-.47345.372627-.94233.828056c-.46888.455428-.97344.873477-1.12125.928995-.54383.204287-1.39528-.112691-1.95648-.728358-.38266-.41979-.48049-.688064-.48436-1.328109-.003-.430281.0135-.454527.86246-1.29947.53441-.531869.86511-.93457.86511-1.053456 0-.706413-1.44907-.700874-2.67334.01024-.53674.311753-1.26545 1.127839-1.58545 1.775557-.23993.485616-.26955.647159-.28426 1.549615l-.0164 1.007484-5.07232 5.02982s-1.09501 1.068751-1.09704 2.269608c-.004 1.828504 1.56641 1.831208 1.56641 1.831208 1.40584.000744 2.42702-1.183857 2.42702-1.183857z" fill="#b4b4b4" stroke-width=".093109" transform="translate(-213.54625 59.084469)"/>
</svg>
