<svg viewBox="0 0 16 16" xmlns="http://www.w3.org/2000/svg">
  <path d="m0 0v16h16v-16zm1 4h14v10h-14z" fill="#4d82b8"/>
  <path d="m1 3h14v12h-14z" fill="#fff"/>
  <g fill="#7ba6ff">
    <path d="m3.3206135 12.297909c-.2667351.07471-.4034729.370052-.3156292.632755.087844.262702.3660193.390338.6327544.315629l8.9575433-2.508878c.266735-.07471.403472-.370052.315628-.632754-.08784-.2627026-.366019-.3903383-.632754-.3156297z"/>
    <path d="m3.2395569 8.218516c-.2667351.0747087-.4034729.3700521-.3156292.6327544.0878436.2627023.3660193.390338.6327544.3156293l8.9575439-2.508878c.266735-.0747086.403472-.370052.315628-.6327543-.087843-.2627023-.366019-.390338-.632754-.3156294z"/>
    <path d="m3.8360019 5.169847c-.211501-.1788752-.5164453-.1816955-.7068378.0195-.1903926.2011956-.1920008.5279627.0195.7068378l9.3626838 7.9184091c.211502.178875.516445.181696.706838-.0195.190392-.201195.192-.527963-.0195-.706837z"/>
  </g>
  <g fill="#808080">
    <path d="m2.5 13c-.277 0-.5.223-.5.5s.223.5.5.5h2c.277 0 .5-.223.5-.5s-.223-.5-.5-.5z"/>
    <path d="m11.5 5c-.277 0-.5.223-.5.5s.223.5.5.5h2c.277 0 .5-.223.5-.5s-.223-.5-.5-.5z"/>
    <path d="m2.5 9c-.277 0-.5.223-.5.5s.223.5.5.5h2c.277 0 .5-.223.5-.5s-.223-.5-.5-.5z"/>
    <path d="m11.5 8.9999997c-.277 0-.5.223-.5.5s.223.5000003.5.5000003h1.999999c.277 0 .5-.2230003.5-.5000003s-.223-.5-.5-.5z"/>
    <path d="m11.5 13c-.277 0-.5.223-.5.5s.223.5.5.5h2c.277 0 .5-.223.5-.5s-.223-.5-.5-.5z"/>
    <path d="m2.5 5c-.277 0-.5.223-.5.5s.223.5.5.5h2c.277 0 .5-.223.5-.5s-.223-.5-.5-.5z"/>
  </g>
</svg>
