<svg viewBox="0 0 16 16" xmlns="http://www.w3.org/2000/svg">
 <path d="m6.1814904-.00000061c-1.401509 0-2.5456732 1.14416401-2.5456732 2.54567301 0 .421472.2424699.742369.4254808 1.090144h-2.9711539c-.5980736 0-1.0901441.492071-1.0901441 1.090145v3.5625l.4855769-.173077c.2022592-.072552.39644076-.115385.6045672-.115385 1.008461 0 1.8197115.810048 1.8197116 1.8185101 0 1.0084615-.8112506 1.8173075-1.8197116 1.8173075-.20812944 0-.4023133-.04164-.6045672-.114183l-.4855769-.174278v3.5625c0 .598073.4920703 1.090144 1.0901441 1.090144h3.5625001l-.1742788-.485577c-.072553-.202258-.1141827-.396442-.1141827-.604567 0-1.008462.8088461-1.819712 1.8173077-1.819712 1.0084605 0 1.8185095.81125 1.8185095 1.819712 0 .208128-.04284.402313-.115385.604567l-.173077.485577h3.5625001c.598074 0 1.090145-.492071 1.090145-1.090144v-2.971154c.347775.183012.668672.425481 1.090144.425481 1.401508 0 2.545673-1.144165 2.545673-2.5456735 0-1.4015091-1.144165-2.5444721-2.545673-2.5444721-.421603 0-.74229.241164-1.090144.42428v-2.972356c0-.598074-.49207-1.090145-1.090145-1.090145h-2.9723561c.183116-.347853.42428-.668541.42428-1.090144 0-1.401509-1.142964-2.54567301-2.5444715-2.54567301z" fill="#76a797" stroke-width=".615385"/><rect fill="#8959ab" height="10" rx="0" ry=".625" stroke-width=".625" width="10" x="6" y="6"/><g fill="#fff" transform="matrix(.625 0 0 .625 6 6)"><rect height="6" ry="1" width="12" x="2" y="1"/><path d="m4 10c-.554 0-1 .446-1 1v3c0 .554.446 1 1 1h1v-4h2v4h4c.554 0 1-.446 1-1v-3c0-.554-.446-1-1-1z"/></g></svg>
