<svg viewBox="0 0 16 16" xmlns="http://www.w3.org/2000/svg">
 <g fill="#4d82b8"><path d="m14 3h-1v-1h-1v-1h2z"/><path d="m0 3h1v-1h1v-1h-2z"/><path d="m0 10h1v1h1v1h-2z"/><path d="m3 1v1h2v-1z"/><path d="m6 .99999995v1.00000005h2v-1.00000005z"/><path d="m9 1v1h2v-1z"/><path d="m3 11v1h2v-1z"/><path d="m6 11v1h2v-1z"/><path d="m9 11v1h2v-1z"/><path d="m1 4h-1v2h1z"/><path d="m.99999999 7h-.99999999v2h.99999999z"/><path d="m14 4h-1v2h1z"/><path d="m14 7h-1v2h1z"/><path d="m14 9.9999995h-1v1.0000005h-1v1h2z"/></g><path d="m3 4.5h8zm0 2h3zm0 2h5z" fill="none" stroke="#808080"/><path d="m8.8629995 5.3629331 6.6730515 6.3352769-3.008837.130287s1.291131 2.607572 1.291131 2.607572c.401224 1.160824-1.341646 1.617012-1.642564.746396 0 0-1.194037-2.608643-1.194037-2.608643l-2.1109005 2.305228z" fill="#fff" fill-rule="evenodd" stroke="#808080" stroke-linejoin="round" stroke-width=".725999"/></svg>
