<?xml version="1.0" encoding="UTF-8" standalone="no"?>
<svg
   xmlns:dc="http://purl.org/dc/elements/1.1/"
   xmlns:cc="http://creativecommons.org/ns#"
   xmlns:rdf="http://www.w3.org/1999/02/22-rdf-syntax-ns#"
   xmlns:svg="http://www.w3.org/2000/svg"
   xmlns="http://www.w3.org/2000/svg"
   xmlns:sodipodi="http://sodipodi.sourceforge.net/DTD/sodipodi-0.dtd"
   xmlns:inkscape="http://www.inkscape.org/namespaces/inkscape"
   version="1.1"
   id="Layer_1"
   x="0px"
   y="0px"
   width="16px"
   height="16px"
   viewBox="0 0 16 16"
   enable-background="new 0 0 16 16"
   xml:space="preserve"
   sodipodi:docname="MenuUtilitiesSettingsIcon.96.[rick].svg"
   inkscape:version="0.92.3 (2405546, 2018-03-11)"><metadata
   id="metadata10"><rdf:RDF><cc:Work
       rdf:about=""><dc:format>image/svg+xml</dc:format><dc:type
         rdf:resource="http://purl.org/dc/dcmitype/StillImage" /><dc:title /></cc:Work></rdf:RDF></metadata><defs
   id="defs8"><clipPath
     clipPathUnits="userSpaceOnUse"
     id="clipPath891"><path
       style="fill:#fafafa;fill-opacity:1;stroke:none;stroke-width:1;stroke-linecap:square;stroke-miterlimit:4;stroke-dasharray:none;stroke-opacity:1;paint-order:normal"
       d="M 0,0 V 16 H 16 V 0 Z M 8,5 A 3,3 0 0 1 11,8 3,3 0 0 1 8,11 3,3 0 0 1 5,8 3,3 0 0 1 8,5 Z"
       id="path893"
       inkscape:connector-curvature="0" /></clipPath></defs><sodipodi:namedview
   pagecolor="#ffffff"
   bordercolor="#666666"
   borderopacity="1"
   objecttolerance="10"
   gridtolerance="10"
   guidetolerance="10"
   inkscape:pageopacity="0"
   inkscape:pageshadow="2"
   inkscape:window-width="3440"
   inkscape:window-height="1377"
   id="namedview6"
   showgrid="true"
   inkscape:pagecheckerboard="true"
   inkscape:zoom="64"
   inkscape:cx="12.782439"
   inkscape:cy="7.6364038"
   inkscape:window-x="-8"
   inkscape:window-y="-8"
   inkscape:window-maximized="1"
   inkscape:current-layer="g889"><inkscape:grid
     type="xygrid"
     id="grid817" /></sodipodi:namedview>
  <g
   id="icon"
   transform="matrix(0.9375,0,0,0.9375,0.5,0.5)"
   style="display:none;stroke:#ffffff;stroke-width:1.0666666;stroke-miterlimit:4;stroke-dasharray:none;stroke-opacity:1;paint-order:stroke fill markers"
   inkscape:label="icon 0">
    <path
   d="M 16,8.713 V 7.4476 C 16,7.1438 15.7815,6.8839 15.4821,6.8318 L 13.6397,6.5113 C 13.5213,6.0799 13.3504,5.6562 13.1275,5.2474 L 14.2309,3.6792 C 14.4057,3.4307 14.3765,3.0925 14.1617,2.8776 L 13.2669,1.9828 C 13.052,1.7679 12.7138,1.7387 12.4653,1.9136 L 10.9419,2.9855 C 10.5205,2.7378 10.0714,2.5444 9.6055,2.408 L 9.2766,0.5179 C 9.2245,0.2185 8.9647,0 8.6609,0 H 7.3954 C 7.0916,0 6.8317,0.2185 6.7796,0.5179 L 6.4593,2.3592 C 6.0224,2.4733 5.5926,2.6396 5.1779,2.8604 L 3.627,1.7691 C 3.3785,1.5943 3.0403,1.6235 2.8254,1.8383 L 1.9306,2.7331 C 1.7157,2.948 1.6865,3.2862 1.8614,3.5347 L 2.9001,5.011 C 2.6351,5.4492 2.4564,5.9189 2.3132,6.4065 L 0.5167,6.7226 C 0.2179,6.7751 0,7.0347 0,7.3381 v 1.2675 c 0,0.3034 0.2179,0.563 0.5167,0.6155 l 1.7387,0.306 c 0.1185,0.4638 0.2827,0.9197 0.5212,1.3583 l -1.0518,1.4877 c -0.1756,0.2483 -0.1469,0.587 0.0679,0.8023 l 0.8913,0.8931 c 0.2149,0.2153 0.5535,0.2446 0.8022,0.0695 l 1.4296,-1.0068 c 0.4541,0.2715 0.9402,0.4536 1.446,0.5947 L 6.6704,15.483 C 6.7229,15.782 6.9825,16 7.286,16 h 1.2674 c 0.3034,0 0.563,-0.2179 0.6155,-0.5167 l 0.3062,-1.7399 c 0.4582,-0.1231 0.9082,-0.2913 1.3408,-0.5322 l 1.505,1.064 c 0.2483,0.1756 0.587,0.1469 0.8023,-0.068 l 0.8931,-0.8913 c 0.2153,-0.2149 0.2446,-0.5535 0.0695,-0.8022 L 13.0459,11.037 C 13.3,10.5997 13.4966,10.134 13.6312,9.6501 L 15.482,9.3287 C 15.7814,9.2767 16,9.0169 16,8.713 Z M 9.3054,10.4222 C 8.006,11.1724 6.3445,10.7272 5.5943,9.4278 4.8441,8.1284 5.2893,6.4669 6.5887,5.7167 7.8881,4.9665 9.5496,5.4117 10.2998,6.7111 11.05,8.0105 10.6048,9.672 9.3054,10.4222 Z"
   id="path2"
   inkscape:connector-curvature="0"
   style="display:inline;opacity:0.4842105;fill:#797979;fill-rule:evenodd;stroke:#ffffff;stroke-width:1.06666672;stroke-miterlimit:4;stroke-dasharray:none;stroke-opacity:1;paint-order:normal"
   inkscape:label="axialis gear" />
  <g
   id="g955"
   transform="matrix(1.0026739,0,0,1.0025159,-0.01604847,-0.02011647)"
   style="display:none;stroke-width:1.06390572"
   inkscape:label="gear 1"><path
     inkscape:label="outline"
     style="display:inline;opacity:1;fill:none;fill-opacity:1;fill-rule:nonzero;stroke:#ffffff;stroke-width:1.99482369;stroke-linecap:butt;stroke-linejoin:round;stroke-miterlimit:4;stroke-dasharray:none;stroke-dashoffset:0.5;stroke-opacity:1;paint-order:stroke fill markers"
     d="m 7.0351562,1.0175781 -0.625,2.2480469 A 5.0000004,5.0000004 0 0 0 5.7734375,3.5273438 L 3.7421875,2.3789062 2.3789062,3.7421875 3.5273438,5.7753906 A 5.0000004,5.0000004 0 0 0 3.2636719,6.4082031 l -2.25,0.625 v 1.9257813 l 2.25,0.625 A 5.0000004,5.0000004 0 0 0 3.5234375,10.220703 L 2.375,12.253906 3.7382812,13.615234 5.7675781,12.46875 a 5.0000004,5.0000004 0 0 0 0.6367188,0.265625 l 0.625,2.248047 H 8.9550781 L 9.578125,12.738281 a 5.0000004,5.0000004 0 0 0 0.644531,-0.263672 l 2.025391,1.144532 1.363281,-1.361329 -1.144531,-2.023437 A 5.0000004,5.0000004 0 0 0 12.736328,9.5898438 L 14.976562,8.9667969 V 7.0390625 L 12.736328,6.4160156 A 5.0000004,5.0000004 0 0 0 12.472656,5.7695312 L 13.615234,3.7460938 12.253906,2.3847656 10.226562,3.5292969 A 5.0000004,5.0000004 0 0 0 9.5859375,3.2617188 l -0.625,-2.2441407 z M 8,5 A 3,3 0 0 1 11,8 3,3 0 0 1 8,11 3,3 0 0 1 5,8 3,3 0 0 1 8,5 Z"
     transform="matrix(1.0666667,0,0,1.0666667,-0.53333333,-0.53333333)"
     id="path951"
     inkscape:connector-curvature="0" /><path
     inkscape:label="fill"
     inkscape:connector-curvature="0"
     id="path842"
     transform="matrix(1.0666667,0,0,1.0666667,-0.53333333,-0.53333333)"
     d="m 7.0351562,1.0175781 -0.625,2.2480469 A 5.0000004,5.0000004 0 0 0 5.7734375,3.5273438 L 3.7421875,2.3789062 2.3789062,3.7421875 3.5273438,5.7753906 A 5.0000004,5.0000004 0 0 0 3.2636719,6.4082031 l -2.25,0.625 v 1.9257813 l 2.25,0.625 A 5.0000004,5.0000004 0 0 0 3.5234375,10.220703 L 2.375,12.253906 3.7382812,13.615234 5.7675781,12.46875 a 5.0000004,5.0000004 0 0 0 0.6367188,0.265625 l 0.625,2.248047 H 8.9550781 L 9.578125,12.738281 a 5.0000004,5.0000004 0 0 0 0.644531,-0.263672 l 2.025391,1.144532 1.363281,-1.361329 -1.144531,-2.023437 A 5.0000004,5.0000004 0 0 0 12.736328,9.5898438 L 14.976562,8.9667969 V 7.0390625 L 12.736328,6.4160156 A 5.0000004,5.0000004 0 0 0 12.472656,5.7695312 L 13.615234,3.7460938 12.253906,2.3847656 10.226562,3.5292969 A 5.0000004,5.0000004 0 0 0 9.5859375,3.2617188 l -0.625,-2.2441407 z M 8,5 A 3,3 0 0 1 11,8 3,3 0 0 1 8,11 3,3 0 0 1 5,8 3,3 0 0 1 8,5 Z"
     style="display:inline;opacity:1;fill:#797979;fill-opacity:1;fill-rule:nonzero;stroke:none;stroke-width:1.99482369;stroke-linecap:butt;stroke-linejoin:round;stroke-miterlimit:4;stroke-dasharray:none;stroke-dashoffset:0.5;stroke-opacity:1;paint-order:stroke fill markers" /></g></g>
<path
   style="display:none;fill:#fafafa;fill-opacity:1;stroke:none;stroke-width:1;stroke-linecap:square;stroke-miterlimit:4;stroke-dasharray:none;stroke-opacity:1;paint-order:normal"
   d="M 0,0 V 16 H 16 V 0 Z m 8,6 c 1.1164141,0 2,0.8835859 2,2 0,1.1164141 -0.8835859,2 -2,2 C 6.8835859,10 6,9.1164141 6,8 6,6.8835859 6.8835859,6 8,6 Z"
   id="path935"
   inkscape:connector-curvature="0" /><g
   id="g889"
   inkscape:label="gear (outline)"
   clip-path="none"
   style="display:inline"><path
     style="display:inline;fill:none;fill-opacity:1;stroke:#ffffff;stroke-width:2;stroke-linecap:butt;stroke-linejoin:miter;stroke-opacity:1;stroke-miterlimit:4;stroke-dasharray:none"
     d="M 7.2929688,1 6.9023438,3.125 A 5,5 0 0 0 5.3300781,3.7792969 l -1.7792969,-1.2285157 -1,1 1.2246094,1.7773438 A 5,5 0 0 0 3.1269531,6.9023438 L 1,7.2929688 v 1.4140624 l 2.125,0.390625 a 5,5 0 0 0 0.6542969,1.5722658 l -1.2285157,1.779297 1,1 1.7773438,-1.226563 a 5,5 0 0 0 1.5742188,0.650391 L 7.2929688,15 h 1.4140624 l 0.3886719,-2.125 a 5,5 0 0 0 1.5722659,-0.652344 l 1.78125,1.228516 1,-1 -1.226563,-1.777344 A 5,5 0 0 0 12.873047,9.0976562 L 15,8.7070312 V 7.2929688 L 12.875,6.9023438 A 5,5 0 0 0 12.220703,5.3300781 l 1.228516,-1.7792969 -1,-1 -1.777344,1.2265626 A 5,5 0 0 0 9.0976562,3.1269531 L 8.7070312,1 Z M 8,5 A 3,3 0 0 1 11,8 3,3 0 0 1 8,11 3,3 0 0 1 5,8 3,3 0 0 1 8,5 Z"
     id="path865"
     inkscape:connector-curvature="0" /></g><g
   style="display:inline"
   clip-path="url(#clipPath891)"
   inkscape:label="gear (fill)"
   id="g989"><path
     inkscape:transform-center-x="2.086164"
     sodipodi:nodetypes="cccccc"
     inkscape:connector-curvature="0"
     id="path971"
     d="M 0.9996226,8.7074845 V 7.2932709 l 7.7071064,-1.4142135 2.12132,2.1213203 -2.12132,2.1213203 z"
     style="display:inline;fill:#797979;fill-opacity:1;stroke:none;stroke-width:1px;stroke-linecap:butt;stroke-linejoin:miter;stroke-opacity:1"
     inkscape:label="blade L" /><path
     inkscape:transform-center-y="1.7249114"
     inkscape:label="blade B L"
     style="display:inline;fill:#797979;fill-opacity:1;stroke:none;stroke-width:1px;stroke-linecap:butt;stroke-linejoin:miter;stroke-opacity:1"
     d="m 3.55,13.449858 -1,-1 L 7.0001914,6.0001862 9.9997327,6 10.000191,9.000186 Z"
     id="path973"
     inkscape:connector-curvature="0"
     sodipodi:nodetypes="cccccc"
     inkscape:transform-center-x="1.7249115" /><path
     sodipodi:nodetypes="cccccc"
     inkscape:connector-curvature="0"
     id="path975"
     d="M 8.7071066,15 H 7.292893 L 5.8786795,7.293 7.9999998,5.1723283 10.12132,7.293 Z"
     style="display:inline;fill:#797979;fill-opacity:1;stroke:none;stroke-width:1px;stroke-linecap:butt;stroke-linejoin:miter;stroke-opacity:1"
     inkscape:label="blade B"
     inkscape:transform-center-y="2.086164" /><path
     inkscape:transform-center-x="-1.7251406"
     sodipodi:nodetypes="cccccc"
     inkscape:connector-curvature="0"
     id="path977"
     d="m 13.450014,12.450392 -1,1 L 6.0002668,9 l 10e-8,-3 h 2.9999999 z"
     style="display:inline;fill:#797979;fill-opacity:1;stroke:none;stroke-width:1px;stroke-linecap:butt;stroke-linejoin:miter;stroke-opacity:1"
     inkscape:label="blade B R"
     inkscape:transform-center-y="1.7251406" /><path
     inkscape:label="blade R"
     style="display:inline;fill:#797979;fill-opacity:1;stroke:none;stroke-width:1px;stroke-linecap:butt;stroke-linejoin:miter;stroke-opacity:1"
     d="M 15.000377,7.2932709 V 8.7074845 L 7.2932706,10.121698 5.1719504,8.0003777 7.2932706,5.8790574 Z"
     id="path979"
     inkscape:connector-curvature="0"
     sodipodi:nodetypes="cccccc"
     inkscape:transform-center-x="-2.0861639" /><path
     inkscape:label="blade T R"
     inkscape:transform-center-x="-1.7306649"
     style="display:inline;fill:#797979;fill-opacity:1;stroke:none;stroke-width:1px;stroke-linecap:butt;stroke-linejoin:miter;stroke-opacity:1"
     d="m 12.450014,2.5503633 1,1 -4.4497472,6.4497477 H 6.0002671 l -1e-7,-3.0000002 z"
     id="path981"
     inkscape:connector-curvature="0"
     sodipodi:nodetypes="cccccc"
     inkscape:transform-center-y="-1.7251405" /><path
     inkscape:transform-center-y="-2.0900704"
     sodipodi:nodetypes="cccccc"
     inkscape:connector-curvature="0"
     id="path983"
     d="M 7.2928932,1 H 8.7071068 L 10.12132,8.7071068 8,10.828427 5.8786797,8.7071068 Z"
     style="display:inline;fill:#797979;fill-opacity:1;stroke:none;stroke-width:1px;stroke-linecap:butt;stroke-linejoin:miter;stroke-opacity:1"
     inkscape:transform-center-x="-0.00390625"
     inkscape:label="blade T" /><path
     inkscape:label="blade T L"
     style="display:inline;fill:#797979;fill-opacity:1;stroke:none;stroke-width:1px;stroke-linecap:butt;stroke-linejoin:miter;stroke-opacity:1"
     d="m 2.5499856,3.5503635 1,-1 6.4497472,4.4497472 -2e-7,2.9999993 -2.9999998,1e-6 z"
     id="path985"
     inkscape:connector-curvature="0"
     sodipodi:nodetypes="cccccc"
     inkscape:transform-center-x="1.7251406"
     inkscape:transform-center-y="-1.7251404" /><path
     style="display:inline;fill:#797979;fill-opacity:1;stroke:none;stroke-width:1;stroke-linecap:square;stroke-miterlimit:4;stroke-dasharray:none;stroke-opacity:1;paint-order:normal"
     d="M 8,3 A 5,5 0 0 0 3,8 5,5 0 0 0 8,13 5,5 0 0 0 13,8 5,5 0 0 0 8,3 Z M 8,5 A 3,3 0 0 1 11,8 3,3 0 0 1 8,11 3,3 0 0 1 5,8 3,3 0 0 1 8,5 Z"
     id="path987"
     inkscape:connector-curvature="0"
     inkscape:label="circle" /></g></svg>