<svg viewBox="0 0 16 16" xmlns="http://www.w3.org/2000/svg">
 <g fill="none"><path d="m7 5.5h8" stroke="#50ff00"/><path d="m5 8.5h10" stroke="#50ff00"/><path d="m7 11.5h8" stroke="#808080"/><path d="m4 14.5h11" stroke="#808080"/><path d="m4.0517177.87386242-.6142281 2.73321758 2.8013842-.0007503" stroke="#4d82b8" stroke-linecap="round" stroke-linejoin="round" stroke-width=".875001"/></g><path d="m3.5056676 2.9921157.546789.6831168 2.7324672-2.187156a1.7500021 1.7500021 0 0 1 2.459812.2726557 1.7500021 1.7500021 0 0 1 -.2726558 2.4598117c-.1892234.1514606-.2196245.4257295-.0681639.6149529s.4257297.2196245.6149527.0681639a2.6250031 2.6250031 0 0 0 .408983-3.6897175 2.6250031 2.6250031 0 0 0 -3.6897171-.40898348z" fill="#4d82b8" stroke-width=".437501"/></svg>
